<?xml version="1.0" encoding="utf-8"?>
<!-- Generator: Adobe Illustrator 28.2.0, SVG Export Plug-In . SVG Version: 6.00 Build 0)  -->
<svg version="1.1" id="Layer_1" xmlns="http://www.w3.org/2000/svg" xmlns:xlink="http://www.w3.org/1999/xlink" x="0px" y="0px"
	 viewBox="0 0 24 24" style="enable-background:new 0 0 24 24;" xml:space="preserve">
<style type="text/css">
	.st0{fill:#FFFFFF;}
</style>
<path class="st0" d="M12,15.6c1.1,0,2.1-0.4,2.9-1.2c0.8-0.8,1.2-1.8,1.2-2.9c0-1.1-0.4-2.1-1.2-2.9c-0.8-0.8-1.8-1.2-2.9-1.2
	c-1.1,0-2.1,0.4-2.9,1.2c-0.8,0.8-1.2,1.8-1.2,2.9c0,1.1,0.4,2.1,1.2,2.9C9.9,15.2,10.9,15.6,12,15.6z M12,14.2
	c-0.8,0-1.4-0.3-1.9-0.8c-0.5-0.5-0.8-1.2-0.8-1.9s0.3-1.4,0.8-1.9c0.5-0.5,1.2-0.8,1.9-0.8s1.4,0.3,1.9,0.8
	c0.5,0.5,0.8,1.2,0.8,1.9s-0.3,1.4-0.8,1.9C13.4,13.9,12.8,14.2,12,14.2z M12,18.5c-2.3,0-4.4-0.6-6.3-1.9c-1.9-1.3-3.3-3-4.2-5.1
	c0.9-2.1,2.3-3.8,4.2-5.1c1.9-1.3,4-1.9,6.3-1.9s4.4,0.6,6.3,1.9c1.9,1.3,3.3,3,4.2,5.1c-0.9,2.1-2.3,3.8-4.2,5.1
	C16.4,17.9,14.3,18.5,12,18.5z M12,17c1.9,0,3.6-0.5,5.2-1.5s2.8-2.3,3.6-4c-0.8-1.7-2-3-3.6-4S13.9,6,12,6S8.4,6.5,6.8,7.5
	s-2.8,2.3-3.6,4c0.8,1.7,2,3,3.6,4S10.1,17,12,17z"/>
</svg>
